<svg id="visual" viewBox="0 0 900 600" width="900" height="600" xmlns="http://www.w3.org/2000/svg" xmlns:xlink="http://www.w3.org/1999/xlink" version="1.1"><rect x="0" y="0" width="900" height="600" fill="#005d7a"></rect><g transform="translate(450.5438668639456 312.1463839342997)"><path d="M140 -244.1C180 -219.4 209.9 -178.9 216.2 -135.6C222.4 -92.3 205 -46.2 203.7 -0.8C202.4 44.7 217.2 89.3 202.5 117.9C187.7 146.5 143.4 159 104.7 181.6C66 204.3 33 237.2 -6.4 248.3C-45.8 259.4 -91.7 248.8 -125.7 223.4C-159.8 198.1 -182.1 158.1 -196.7 118.4C-211.3 78.7 -218.1 39.3 -218.6 -0.2C-219 -39.8 -213 -79.7 -199.9 -122C-186.8 -164.2 -166.7 -209 -132.2 -236.9C-97.7 -264.8 -48.8 -275.9 0.6 -276.9C50 -277.9 100 -268.9 140 -244.1" fill="none" stroke="#ff0000" stroke-width="6"></path></g></svg>